# xmcd CD database file
#
# Track frame offsets:
#	150
#	15307
#	25560
#	50055
#	68012
#	89375
#	104140
#	113827
#	136750
#	143332
#	172747
#	190330
#	191957
#	193485
#	194775
#	196510
#	200067
#	203702
#	205340
#	208317
#	214330
#	217302
#	227997
#	242267
#	249755
#	258767
#	261370
#	266912
#	284717
#	296095
#	316150
#	325830
#
# Disc length: 4541 seconds
#
# Revision: 3
# Processed by: cddbd v1.5.2PL0 Copyright (c) Steve Scherf et al.
# Submitted via: CDex 1.70beta3
#
DISCID=fe11bb20
DTITLE=アンタル・ドラティ with フィルハーモニア・フンガリア - コダーイ:管弦楽曲集
DYEAR=1973
DGENRE=Classical
TTITLE0=ハーリ・ヤーノシュ 第1曲：前奏曲、おとぎ話始まる
TTITLE1=ハーリ・ヤーノシュ 第2曲：ウィーンの音楽時計
TTITLE2=ハーリ・ヤーノシュ 第3曲：歌
TTITLE3=ハーリ・ヤーノシュ 第4曲：戦争とナポレオンの敗北
TTITLE4=ハーリ・ヤーノシュ 第5曲：間奏曲
TTITLE5=ハーリ・ヤーノシュ 第6曲：皇帝と延臣たちの入場
TTITLE6=ガランタ舞曲 レント
TTITLE7=ガランタ舞曲 アンダンテ・マエストーゾ
TTITLE8=ガランタ舞曲 アレグロ・コン・モート、グラツィオーソ
TTITLE9=ガランタ舞曲 アレグロ
TTITLE10=ハンガリー民謡「くじゃく」による変奏曲 主題：モデラート
TTITLE11=ハンガリー民謡「くじゃく」による変奏曲 第1変奏：コン・ブリオ
TTITLE12=ハンガリー民謡「くじゃく」による変奏曲 第2変奏：
TTITLE13=ハンガリー民謡「くじゃく」による変奏曲 第3変奏：ピウ・モッソ
TTITLE14=ハンガリー民謡「くじゃく」による変奏曲 第4変奏：ポコ・カルマート
TTITLE15=ハンガリー民謡「くじゃく」による変奏曲 第5変奏：
TTITLE16=ハンガリー民謡「くじゃく」による変奏曲 第6変奏：カルマート
TTITLE17=ハンガリー民謡「くじゃく」による変奏曲 第7変奏：ヴィーヴォ
TTITLE18=ハンガリー民謡「くじゃく」による変奏曲 第8変奏：ピウ・ヴィーヴォ
TTITLE19=ハンガリー民謡「くじゃく」による変奏曲 第9変奏：
TTITLE20=ハンガリー民謡「くじゃく」による変奏曲 第10変奏：モルト・ヴィーヴォ
TTITLE21=ハンガリー民謡「くじゃく」による変奏曲 第11変奏：アンダンテ・エスプレッシーヴォ
TTITLE22=ハンガリー民謡「くじゃく」による変奏曲 第12変奏：アダージョ
TTITLE23=ハンガリー民謡「くじゃく」による変奏曲 第13変奏：葬送行進曲
TTITLE24=ハンガリー民謡「くじゃく」による変奏曲 第14変奏：アンダンテ・ポコ・ルバート
TTITLE25=ハンガリー民謡「くじゃく」による変奏曲 第15変奏：アレグロ・ジョコーソ
TTITLE26=ハンガリー民謡「くじゃく」による変奏曲 第16変奏：マエストーソ
TTITLE27=ハンガリー民謡「くじゃく」による変奏曲 フィナーレ：ヴィヴァーチェ
TTITLE28=マロシュセーク舞曲 マエストーソ・ポコ・ルバート-コン・モート 
TTITLE29=マロシュセーク舞曲 モデラート
TTITLE30=マロシュセーク舞曲 ヴィヴァーチェ
TTITLE31=マロシュセーク舞曲 アレグロ・コン・ブリオ
EXTD=YEAR: 1973
EXTT0=
EXTT1=
EXTT2=
EXTT3=
EXTT4=
EXTT5=
EXTT6=
EXTT7=
EXTT8=
EXTT9=
EXTT10=
EXTT11=
EXTT12=
EXTT13=
EXTT14=
EXTT15=
EXTT16=
EXTT17=
EXTT18=
EXTT19=
EXTT20=
EXTT21=
EXTT22=
EXTT23=
EXTT24=
EXTT25=
EXTT26=
EXTT27=
EXTT28=
EXTT29=
EXTT30=
EXTT31=
PLAYORDER=
